<mxfile host="app.diagrams.net" agent="Mozilla/5.0 (Windows NT 10.0; Win64; x64) AppleWebKit/537.36 (KHTML, like Gecko) Chrome/137.0.0.0 Safari/537.36" version="27.1.3">
  <diagram name="Halaman-1" id="bdc8vfte7PT7WXE4uVxq">
    <mxGraphModel dx="1025" dy="497" grid="1" gridSize="10" guides="1" tooltips="1" connect="1" arrows="1" fold="1" page="1" pageScale="1" pageWidth="827" pageHeight="1169" math="0" shadow="0">
      <root>
        <mxCell id="0" />
        <mxCell id="1" parent="0" />
        <mxCell id="TJNfMZ-C8C5Gyj81Nepe-1" value="Member" style="rounded=0;whiteSpace=wrap;html=1;" parent="1" vertex="1">
          <mxGeometry x="130" y="281" width="80" height="40" as="geometry" />
        </mxCell>
        <mxCell id="TJNfMZ-C8C5Gyj81Nepe-2" value="SI&lt;div&gt;Ubah&lt;br&gt;&lt;div&gt;Member&lt;/div&gt;&lt;/div&gt;" style="ellipse;whiteSpace=wrap;html=1;" parent="1" vertex="1">
          <mxGeometry x="314" y="261" width="80" height="80" as="geometry" />
        </mxCell>
        <mxCell id="TJNfMZ-C8C5Gyj81Nepe-3" value="SI&lt;div&gt;Tambah&lt;br&gt;&lt;div&gt;Member&lt;/div&gt;&lt;/div&gt;" style="ellipse;whiteSpace=wrap;html=1;" parent="1" vertex="1">
          <mxGeometry x="314" y="141" width="80" height="80" as="geometry" />
        </mxCell>
        <mxCell id="TJNfMZ-C8C5Gyj81Nepe-4" value="SI&lt;div&gt;Cari&lt;br&gt;&lt;div&gt;Member&lt;/div&gt;&lt;/div&gt;" style="ellipse;whiteSpace=wrap;html=1;" parent="1" vertex="1">
          <mxGeometry x="314" y="381" width="80" height="80" as="geometry" />
        </mxCell>
        <mxCell id="TJNfMZ-C8C5Gyj81Nepe-5" value="" style="endArrow=classic;html=1;rounded=0;exitX=0.618;exitY=0.013;exitDx=0;exitDy=0;exitPerimeter=0;entryX=0.017;entryY=0.625;entryDx=0;entryDy=0;entryPerimeter=0;" parent="1" source="TJNfMZ-C8C5Gyj81Nepe-1" target="TJNfMZ-C8C5Gyj81Nepe-3" edge="1">
          <mxGeometry width="50" height="50" relative="1" as="geometry">
            <mxPoint x="230" y="271" as="sourcePoint" />
            <mxPoint x="280" y="221" as="targetPoint" />
            <Array as="points">
              <mxPoint x="180" y="191" />
            </Array>
          </mxGeometry>
        </mxCell>
        <mxCell id="TJNfMZ-C8C5Gyj81Nepe-6" value="" style="endArrow=classic;html=1;rounded=0;entryX=0.363;entryY=-0.01;entryDx=0;entryDy=0;entryPerimeter=0;exitX=0.014;exitY=0.379;exitDx=0;exitDy=0;exitPerimeter=0;" parent="1" source="TJNfMZ-C8C5Gyj81Nepe-3" target="TJNfMZ-C8C5Gyj81Nepe-1" edge="1">
          <mxGeometry width="50" height="50" relative="1" as="geometry">
            <mxPoint x="250" y="261" as="sourcePoint" />
            <mxPoint x="300" y="211" as="targetPoint" />
            <Array as="points">
              <mxPoint x="160" y="171" />
            </Array>
          </mxGeometry>
        </mxCell>
        <mxCell id="TJNfMZ-C8C5Gyj81Nepe-7" value="D member input" style="text;html=1;align=center;verticalAlign=middle;resizable=0;points=[];autosize=1;strokeColor=none;fillColor=none;" parent="1" vertex="1">
          <mxGeometry x="189" y="170" width="110" height="30" as="geometry" />
        </mxCell>
        <mxCell id="TJNfMZ-C8C5Gyj81Nepe-8" value="info data member" style="text;html=1;align=center;verticalAlign=middle;resizable=0;points=[];autosize=1;strokeColor=none;fillColor=none;" parent="1" vertex="1">
          <mxGeometry x="185" y="150" width="120" height="30" as="geometry" />
        </mxCell>
        <mxCell id="TJNfMZ-C8C5Gyj81Nepe-9" value="Member" style="rounded=0;whiteSpace=wrap;html=1;" parent="1" vertex="1">
          <mxGeometry x="540" y="281" width="70" height="40" as="geometry" />
        </mxCell>
        <mxCell id="TJNfMZ-C8C5Gyj81Nepe-10" value="D1" style="rounded=0;whiteSpace=wrap;html=1;" parent="1" vertex="1">
          <mxGeometry x="490" y="281" width="50" height="40" as="geometry" />
        </mxCell>
        <mxCell id="TJNfMZ-C8C5Gyj81Nepe-11" value="" style="endArrow=classic;html=1;rounded=0;exitX=0.994;exitY=0.615;exitDx=0;exitDy=0;exitPerimeter=0;entryX=0.295;entryY=0.004;entryDx=0;entryDy=0;entryPerimeter=0;" parent="1" source="TJNfMZ-C8C5Gyj81Nepe-3" target="TJNfMZ-C8C5Gyj81Nepe-9" edge="1">
          <mxGeometry width="50" height="50" relative="1" as="geometry">
            <mxPoint x="410" y="190" as="sourcePoint" />
            <mxPoint x="530" y="271" as="targetPoint" />
            <Array as="points">
              <mxPoint x="560" y="191" />
            </Array>
          </mxGeometry>
        </mxCell>
        <mxCell id="TJNfMZ-C8C5Gyj81Nepe-12" value="" style="endArrow=classic;html=1;rounded=0;entryX=0.988;entryY=0.374;entryDx=0;entryDy=0;entryPerimeter=0;exitX=0.577;exitY=0.001;exitDx=0;exitDy=0;exitPerimeter=0;" parent="1" source="TJNfMZ-C8C5Gyj81Nepe-9" target="TJNfMZ-C8C5Gyj81Nepe-3" edge="1">
          <mxGeometry width="50" height="50" relative="1" as="geometry">
            <mxPoint x="570" y="271" as="sourcePoint" />
            <mxPoint x="470" y="191" as="targetPoint" />
            <Array as="points">
              <mxPoint x="580" y="171" />
            </Array>
          </mxGeometry>
        </mxCell>
        <mxCell id="TJNfMZ-C8C5Gyj81Nepe-13" value="D member input" style="text;html=1;align=center;verticalAlign=middle;resizable=0;points=[];autosize=1;strokeColor=none;fillColor=none;" parent="1" vertex="1">
          <mxGeometry x="427" y="170" width="110" height="30" as="geometry" />
        </mxCell>
        <mxCell id="TJNfMZ-C8C5Gyj81Nepe-14" value="info data member" style="text;html=1;align=center;verticalAlign=middle;resizable=0;points=[];autosize=1;strokeColor=none;fillColor=none;" parent="1" vertex="1">
          <mxGeometry x="422" y="150" width="120" height="30" as="geometry" />
        </mxCell>
        <mxCell id="TJNfMZ-C8C5Gyj81Nepe-15" value="" style="endArrow=classic;html=1;rounded=0;exitX=1;exitY=0.25;exitDx=0;exitDy=0;entryX=0.014;entryY=0.375;entryDx=0;entryDy=0;entryPerimeter=0;" parent="1" source="TJNfMZ-C8C5Gyj81Nepe-1" target="TJNfMZ-C8C5Gyj81Nepe-2" edge="1">
          <mxGeometry width="50" height="50" relative="1" as="geometry">
            <mxPoint x="270" y="341" as="sourcePoint" />
            <mxPoint x="300" y="291" as="targetPoint" />
          </mxGeometry>
        </mxCell>
        <mxCell id="TJNfMZ-C8C5Gyj81Nepe-16" value="" style="endArrow=classic;html=1;rounded=0;exitX=1;exitY=0.25;exitDx=0;exitDy=0;entryX=0;entryY=0.25;entryDx=0;entryDy=0;" parent="1" target="TJNfMZ-C8C5Gyj81Nepe-10" edge="1">
          <mxGeometry width="50" height="50" relative="1" as="geometry">
            <mxPoint x="394" y="291" as="sourcePoint" />
            <mxPoint x="499" y="291" as="targetPoint" />
          </mxGeometry>
        </mxCell>
        <mxCell id="TJNfMZ-C8C5Gyj81Nepe-17" value="" style="endArrow=classic;html=1;rounded=0;exitX=0.012;exitY=0.617;exitDx=0;exitDy=0;entryX=1;entryY=0.75;entryDx=0;entryDy=0;exitPerimeter=0;" parent="1" source="TJNfMZ-C8C5Gyj81Nepe-2" target="TJNfMZ-C8C5Gyj81Nepe-1" edge="1">
          <mxGeometry width="50" height="50" relative="1" as="geometry">
            <mxPoint x="404" y="301" as="sourcePoint" />
            <mxPoint x="500" y="301" as="targetPoint" />
          </mxGeometry>
        </mxCell>
        <mxCell id="TJNfMZ-C8C5Gyj81Nepe-18" value="" style="endArrow=classic;html=1;rounded=0;exitX=0.012;exitY=0.617;exitDx=0;exitDy=0;exitPerimeter=0;entryX=0.988;entryY=0.627;entryDx=0;entryDy=0;entryPerimeter=0;" parent="1" target="TJNfMZ-C8C5Gyj81Nepe-2" edge="1">
          <mxGeometry width="50" height="50" relative="1" as="geometry">
            <mxPoint x="490" y="311" as="sourcePoint" />
            <mxPoint x="400" y="331" as="targetPoint" />
          </mxGeometry>
        </mxCell>
        <mxCell id="TJNfMZ-C8C5Gyj81Nepe-21" value="" style="endArrow=classic;html=1;rounded=0;exitX=0.993;exitY=0.615;exitDx=0;exitDy=0;exitPerimeter=0;entryX=0.566;entryY=0.991;entryDx=0;entryDy=0;entryPerimeter=0;" parent="1" source="TJNfMZ-C8C5Gyj81Nepe-4" target="TJNfMZ-C8C5Gyj81Nepe-9" edge="1">
          <mxGeometry width="50" height="50" relative="1" as="geometry">
            <mxPoint x="500" y="421" as="sourcePoint" />
            <mxPoint x="590" y="331" as="targetPoint" />
            <Array as="points">
              <mxPoint x="580" y="431" />
            </Array>
          </mxGeometry>
        </mxCell>
        <mxCell id="TJNfMZ-C8C5Gyj81Nepe-22" value="" style="endArrow=classic;html=1;rounded=0;entryX=0.985;entryY=0.374;entryDx=0;entryDy=0;entryPerimeter=0;exitX=0.284;exitY=1.001;exitDx=0;exitDy=0;exitPerimeter=0;" parent="1" source="TJNfMZ-C8C5Gyj81Nepe-9" target="TJNfMZ-C8C5Gyj81Nepe-4" edge="1">
          <mxGeometry width="50" height="50" relative="1" as="geometry">
            <mxPoint x="550" y="341" as="sourcePoint" />
            <mxPoint x="480" y="341" as="targetPoint" />
            <Array as="points">
              <mxPoint x="560" y="411" />
            </Array>
          </mxGeometry>
        </mxCell>
        <mxCell id="TJNfMZ-C8C5Gyj81Nepe-23" value="D member ubah" style="text;html=1;align=center;verticalAlign=middle;resizable=0;points=[];autosize=1;strokeColor=none;fillColor=none;" parent="1" vertex="1">
          <mxGeometry x="204" y="271" width="110" height="30" as="geometry" />
        </mxCell>
        <mxCell id="TJNfMZ-C8C5Gyj81Nepe-24" value="info member" style="text;html=1;align=center;verticalAlign=middle;resizable=0;points=[];autosize=1;strokeColor=none;fillColor=none;" parent="1" vertex="1">
          <mxGeometry x="220" y="290" width="90" height="30" as="geometry" />
        </mxCell>
        <mxCell id="TJNfMZ-C8C5Gyj81Nepe-25" value="D member ubah" style="text;html=1;align=center;verticalAlign=middle;resizable=0;points=[];autosize=1;strokeColor=none;fillColor=none;" parent="1" vertex="1">
          <mxGeometry x="382" y="271" width="110" height="30" as="geometry" />
        </mxCell>
        <mxCell id="TJNfMZ-C8C5Gyj81Nepe-26" value="info member" style="text;html=1;align=center;verticalAlign=middle;resizable=0;points=[];autosize=1;strokeColor=none;fillColor=none;" parent="1" vertex="1">
          <mxGeometry x="396" y="290" width="90" height="30" as="geometry" />
        </mxCell>
        <mxCell id="TJNfMZ-C8C5Gyj81Nepe-27" value="info member" style="text;html=1;align=center;verticalAlign=middle;resizable=0;points=[];autosize=1;strokeColor=none;fillColor=none;" parent="1" vertex="1">
          <mxGeometry x="217" y="389" width="90" height="30" as="geometry" />
        </mxCell>
        <mxCell id="TJNfMZ-C8C5Gyj81Nepe-28" value="kd, nm member" style="text;html=1;align=center;verticalAlign=middle;resizable=0;points=[];autosize=1;strokeColor=none;fillColor=none;" parent="1" vertex="1">
          <mxGeometry x="206" y="410" width="110" height="30" as="geometry" />
        </mxCell>
        <mxCell id="TJNfMZ-C8C5Gyj81Nepe-29" value="info member" style="text;html=1;align=center;verticalAlign=middle;resizable=0;points=[];autosize=1;strokeColor=none;fillColor=none;" parent="1" vertex="1">
          <mxGeometry x="433" y="389" width="90" height="30" as="geometry" />
        </mxCell>
        <mxCell id="TJNfMZ-C8C5Gyj81Nepe-30" value="kd, nm member" style="text;html=1;align=center;verticalAlign=middle;resizable=0;points=[];autosize=1;strokeColor=none;fillColor=none;" parent="1" vertex="1">
          <mxGeometry x="422" y="410" width="110" height="30" as="geometry" />
        </mxCell>
        <mxCell id="TJNfMZ-C8C5Gyj81Nepe-31" value="Pegawai" style="rounded=0;whiteSpace=wrap;html=1;" parent="1" vertex="1">
          <mxGeometry x="130" y="400" width="80" height="40" as="geometry" />
        </mxCell>
        <mxCell id="TJNfMZ-C8C5Gyj81Nepe-32" value="" style="endArrow=classic;html=1;rounded=0;exitX=0.026;exitY=0.366;exitDx=0;exitDy=0;exitPerimeter=0;entryX=1;entryY=0.25;entryDx=0;entryDy=0;" parent="1" source="TJNfMZ-C8C5Gyj81Nepe-4" target="TJNfMZ-C8C5Gyj81Nepe-31" edge="1">
          <mxGeometry width="50" height="50" relative="1" as="geometry">
            <mxPoint x="185" y="511" as="sourcePoint" />
            <mxPoint x="200" y="450" as="targetPoint" />
          </mxGeometry>
        </mxCell>
        <mxCell id="TJNfMZ-C8C5Gyj81Nepe-33" value="" style="endArrow=classic;html=1;rounded=0;exitX=1;exitY=0.75;exitDx=0;exitDy=0;entryX=0.017;entryY=0.606;entryDx=0;entryDy=0;entryPerimeter=0;" parent="1" source="TJNfMZ-C8C5Gyj81Nepe-31" target="TJNfMZ-C8C5Gyj81Nepe-4" edge="1">
          <mxGeometry width="50" height="50" relative="1" as="geometry">
            <mxPoint x="340" y="450" as="sourcePoint" />
            <mxPoint x="390" y="400" as="targetPoint" />
          </mxGeometry>
        </mxCell>
      </root>
    </mxGraphModel>
  </diagram>
</mxfile>
